<?xml version="1.0" standalone="no"?>
<!DOCTYPE svg PUBLIC "-//W3C//DTD SVG 20010904//EN"
 "http://www.w3.org/TR/2001/REC-SVG-20010904/DTD/svg10.dtd">
<svg version="1.0" xmlns="http://www.w3.org/2000/svg"
 width="540.000000pt" height="540.000000pt" viewBox="0 0 540.000000 540.000000"
 preserveAspectRatio="xMidYMid meet">

<g transform="translate(0.000000,540.000000) scale(0.100000,-0.100000)"
fill="#000000" stroke="none">
<path d="M2235 4026 c-126 -30 -209 -95 -259 -199 -44 -93 -53 -140 -62 -321
l-7 -149 24 7 c100 29 171 38 270 33 l106 -4 6 84 c10 145 60 201 186 212 l66
6 3 173 2 172 -142 -1 c-79 0 -166 -6 -193 -13z"/>
<path d="M3592 3868 l3 -173 66 -6 c82 -7 127 -32 159 -90 25 -44 25 -44 30
-380 l5 -335 30 -60 c25 -48 40 -65 82 -89 29 -16 52 -32 53 -35 0 -3 -21 -16
-47 -30 -26 -14 -58 -40 -70 -59 -46 -68 -53 -118 -53 -365 -1 -322 -11 -441
-48 -542 -36 -100 -87 -180 -158 -251 -30 -30 -54 -63 -54 -74 0 -18 8 -19
138 -19 90 0 158 5 195 15 127 33 214 100 262 200 48 101 55 169 55 508 0 172
5 330 10 352 15 65 47 85 136 85 l74 0 0 174 0 173 -65 6 c-35 3 -77 13 -93
21 -54 28 -56 40 -63 436 -3 201 -11 381 -16 401 -20 72 -62 149 -105 191 -86
87 -190 118 -390 118 l-138 0 2 -172z"/>
<path d="M2743 3593 c-7 -2 -13 -20 -13 -39 l0 -34 273 2 272 3 3 23 c7 50 -1
52 -272 51 -138 0 -257 -3 -263 -6z"/>
<path d="M2743 3343 c-7 -2 -13 -20 -13 -39 l0 -34 384 0 c373 0 385 1 391 20
3 10 1 28 -5 40 -10 20 -18 20 -378 19 -202 0 -373 -3 -379 -6z"/>
<path d="M2085 3180 c-224 -24 -448 -169 -562 -366 l-36 -61 -106 -6 c-206
-10 -367 -86 -504 -237 -152 -168 -230 -470 -149 -579 34 -46 81 -71 134 -71
53 0 79 10 116 44 38 33 52 71 62 157 17 145 84 245 205 304 53 27 72 30 199
35 116 5 149 10 187 29 61 29 120 89 158 161 93 175 256 265 433 240 135 -19
240 -98 318 -238 106 -190 106 -190 327 -196 87 -3 172 -9 188 -14 95 -29 167
-89 212 -175 25 -46 28 -63 28 -147 0 -82 -4 -103 -26 -151 -34 -72 -96 -134
-168 -168 -56 -26 -56 -26 -347 -29 -314 -4 -352 1 -404 44 -65 56 -65 50 -68
467 l-3 377 -25 16 c-28 19 -111 14 -168 -10 -45 -19 -101 -77 -130 -135 -42
-82 -48 -151 -44 -517 3 -328 4 -341 26 -388 37 -80 85 -132 160 -168 l67 -33
455 0 c445 1 457 1 530 24 186 56 335 183 420 356 54 108 73 190 73 305 0 113
-21 205 -67 303 -116 249 -373 408 -636 395 l-87 -4 -31 56 c-50 89 -116 165
-195 224 -162 122 -348 176 -542 156z"/>
<path d="M2960 3086 c-6 -8 -10 -25 -8 -38 l3 -23 203 -3 202 -2 0 34 c0 22
-6 36 -16 40 -9 3 -96 6 -194 6 -143 0 -180 -3 -190 -14z"/>
</g>
</svg>
